<svg id="Layer_1" data-name="Layer 1" xmlns="http://www.w3.org/2000/svg" viewBox="0 0 1153.13 179.7"><defs><style>.cls-1{fill:#1bbbc9;}</style></defs><path class="cls-1" d="M200.08,204.61h-76.5L111.26,237H37.84l74.44-179.7h99.09L285.82,237H212.4ZM182.62,158.4l-20.79-54.93L141,158.4Z" transform="translate(-37.84 -57.26)"/><path class="cls-1" d="M469.11,185.36,500.94,237H421.87L397,194.86H357.7V237H291V57.26H432.14c40.82,0,68.8,28.75,68.8,68.8C500.94,152.24,488.88,173.81,469.11,185.36Zm-111.41-47h61.61c6.67,0,14.89,0,14.89-12.32s-8.22-12.32-14.89-12.32H357.7Z" transform="translate(-37.84 -57.26)"/><path class="cls-1" d="M575.38,108.6v16.69H698.6v43.64H575.38v16.69H698.6V237h-190V57.26h190V108.6Z" transform="translate(-37.84 -57.26)"/><path class="cls-1" d="M937.86,57.26V237H850.57l-77.52-106V237H706.3V57.26h87.28l77.53,106v-106Z" transform="translate(-37.84 -57.26)"/><path class="cls-1" d="M1105.23,204.61h-76.5L1016.4,237H943l74.45-179.7h99.09L1191,237h-73.42Zm-17.46-46.21L1067,103.47l-20.8,54.93Z" transform="translate(-37.84 -57.26)"/></svg>